<svg style="width: 200px;" viewBox="0 -28.5 460.8 163.84001">
   <path class="flickering bullet" d="m 296.12813,-18.116875 c 0,0 -6.67652,26.0395933 0.10625,37.551251 6.78272,11.511657 23.345,8.593126 23.345,8.593126 0,0 -8.33612,-7.452865 -14.90812,-19.0637509 -6.572,-11.6108879 -8.54313,-27.0806261 -8.54313,-27.0806261 z m -180.6275,6.275626 c -2.81336,0.675864 -17.718377,5.3399557 -23.493127,29.59375 -2.259337,9.489198 -2.461896,19.389733 0.12375,28.708126 H 102.79063 C 95.552799,36.033169 94.483208,24.37488 97.131253,13.253126 101.9507,-6.9884515 112.85095,-11.123666 115.50063,-11.841249 Z m 77.74625,28.231875 c -4.94633,-0.04657 -14.89233,0.894893 -15.31937,9.177501 -0.56938,11.043478 5.04984,25.369891 21.05062,36.675626 3.43185,2.424852 7.49538,3.771919 11.75938,4.4 C 186.32114,73.269166 165.0525,76.931944 151.25,73.645628 136.71025,70.18378 125.63964,65.505381 117.2875,60.066253 H 98.412503 c 7.507117,11.128857 22.941627,22.034935 50.116247,26.478126 27.17464,4.44319 58.01779,-11.129857 104.85501,-26.478126 h -20.38625 c -9.42159,2.432362 -26.06971,5.473811 -34.7375,-0.650625 -12.47471,-8.814302 -14.34148,-18.95455 -13.72688,-30.875001 0.61461,-11.920451 11.45563,-12.009376 11.45563,-12.009376 0,0 -1.0931,-0.125101 -2.74188,-0.140625 z m 189.02876,3.1525 C 356.8519,19.040787 315.99821,32.626102 274.71938,46.460627 h 30.7375 c 0,0 7.25391,-3.985446 18.62375,-7.4475 11.36984,-3.462052 39.57935,-9.705404 62.41438,-6.39875 17.60334,2.549071 29.53879,11.968386 34.16875,16.221875 H 190.50501 c 1.96036,3.069669 4.77246,5.997105 8.78812,8.853751 h 232.36063 25.49625 C 420.67933,48.83638 421.00146,27.523834 392.35189,20.702502 c -2.99996,-0.714276 -6.3746,-1.086236 -10.07625,-1.159376 z M 30.187501,46.115002 c -6.276494,0 -16.413021,5.524064 -26.5375009,7.148125 10.1244799,1.624061 20.2610069,7.148126 26.5375009,7.148126 3.39655,0 5.95844,-1.181405 7.630625,-2.72125 H 190.32126 c -2.96502,-2.861932 -5.42455,-5.83777 -7.42063,-8.853751 H 37.818126 c -1.672188,-1.539784 -4.234167,-2.72125 -7.630625,-2.72125 z M 269.96188,60.066253 c 0,0 -11.49469,6.602666 -16.51937,19.67125 -5.02472,13.068585 5.52739,29.217257 21.74312,33.685627 16.21574,4.46836 39.37875,-13.586251 39.37875,-13.586251 0,0 -16.20967,10.582581 -33.71312,5.759371 -17.50343,-4.8232 -26.79135,-16.618246 -22.60625,-27.503122 4.18508,-10.884876 19.98312,-18.026875 19.98312,-18.026875 z m -29.39437,20.49125 c -3.74783,-0.07074 -7.96903,1.01143 -10.58125,5.335625 -5.57272,9.224951 -6.43188,39.063752 -6.43188,39.063752 0,0 16.56676,-11.00314 21.47375,-19.91938 4.907,-8.916225 3.42688,-22.838747 3.42688,-22.838747 0,0 -3.63997,-1.561081 -7.8875,-1.64125 z m -114.30126,5.917501 c -5.48486,-0.08997 -11.76322,0.938524 -17.81375,4.45875 -16.134742,9.387266 -20.505622,29.526876 -20.505622,29.526876 0,0 31.309892,-3.9325 44.309372,-11.7925 12.99948,-7.86001 10.08813,-18.787501 10.08813,-18.787501 0,0 -6.93668,-3.255683 -16.07813,-3.405625 z" />
</svg>
