<svg xmlns="http://www.w3.org/2000/svg" viewBox="-2 -30 170 167" style="fill: #f4e0fd;"><path d="M 109.03906,-19.097657 85.916028,4.0273435 C 76.03359,13.910271 73.947518,28.630506 79.646496,40.562488 L 69.060559,51.146472 C 57.128568,45.447493 42.408328,47.531615 32.525398,57.41405 L 9.4023477,80.537097 c -12.53578,12.536407 -12.53577,32.862043 0,45.398453 12.5362103,12.53692 32.8615503,12.53658 45.3984403,0 L 77.92384,102.8125 C 87.80627,92.929557 89.89205,78.209233 84.193371,66.277332 L 94.777356,55.693347 c 11.932134,5.699676 26.653784,3.615174 36.537094,-6.267578 L 154.4375,26.302722 c 12.53625,-12.536888 12.5366,-32.8641685 0,-45.400379 -12.52045,-12.519828 -32.87671,-12.521088 -45.39844,0 z m 7.14258,53.390614 c 4.17853,-4.179188 4.17887,-10.954295 -9.2e-4,-15.132573 -4.17979,-4.178279 -10.95323,-4.178283 -15.13194,-2.4e-4 l 23.12305,-23.1249905 c 4.17325,-4.1726 10.95951,-4.17262 15.13579,0.00295 4.17628,4.17557 4.17594,10.95262 2.0865,13.0422133 z M 47.658208,72.546863 c -4.17805,4.178707 -4.17805,10.954109 0,15.132813 4.17851,4.179208 10.95363,4.178645 15.13281,0 l -23.12305,23.125014 c -4.17918,4.17853 -10.95429,4.17692 -15.13281,-0.002 -4.17804,-4.1787 -4.17805,-10.952161 0,-15.130867 z" /></svg>