<svg xmlns="http://www.w3.org/2000/svg" viewBox="-2 -30 170 167" style="fill: #f4e0fd;"><path d="M 12.929688 -15.570312 L 12.929688 122.41016 L 150.91016 122.41016 L 150.91016 -15.570312 L 12.929688 -15.570312 z M 35.210938 6.7109375 L 128.62891 6.7109375 L 128.62891 66.277344 C 128.62891 66.277344 120.02818 64.053354 108.02344 64.101562 C 96.018708 64.14977 80.330159 74.044073 62.505859 74.439453 C 44.68156 74.834835 35.210938 69.029297 35.210938 69.029297 L 35.210938 6.7109375 z M 100.53516 18.183594 A 15.861308 15.861308 0 0 0 84.673828 34.044922 A 15.861308 15.861308 0 0 0 100.53516 49.90625 A 15.861308 15.861308 0 0 0 116.39648 34.044922 A 15.861308 15.861308 0 0 0 100.53516 18.183594 z " /></svg>