<svg xmlns="http://www.w3.org/2000/svg" viewBox="-2 -30 170 167" style="fill: #f4e0fd;"><path d="M 81.917079,-28.499823 A 81.920643,81.920643 0 0 0 1.2508576e-4,53.423122 81.920643,81.920643 0 0 0 81.917079,135.34008 81.920643,81.920643 0 0 0 163.84014,53.423122 81.920643,81.920643 0 0 0 81.917079,-28.499823 Z m -15.504406,9.822206 H 77.248794 L 74.729454,9.3868361 H 57.22177 Z m 20.1667,0 H 97.421485 L 106.61239,9.3868361 H 89.104703 Z m -69.76971,33.35805 H 147.02449 v 7.175525 h -6.57453 l -7.06615,7.066157 h -9.55519 l -7.06616,-7.066157 H 47.071695 l -7.066157,7.066157 H 30.45035 l -7.066157,-7.066157 h -6.57453 z M 51.40612,27.143447 H 73.13287 L 66.22448,104.00962 H 26.231284 Z m 39.295168,0 h 21.726752 l 25.16872,76.866173 H 97.609677 Z" /></svg>