<svg xmlns="http://www.w3.org/2000/svg" viewBox="-2 -30 170 167" style="fill: #f4e0fd;"><path d="M 81.920482,49.040066 C 89.339001,33.696823 109.54205,5.1029554 128.32648,-8.9985011 141.87992,-19.173753 163.84,-27.046784 163.84,-1.9943821 c 0,5.0033051 -2.86859,42.0303631 -4.55105,48.0415611 -5.84821,20.899082 -27.15886,26.229501 -46.11504,23.003284 33.13503,5.639453 41.56427,24.319363 23.36034,42.999277 -34.57286,35.4768 -49.691252,-8.90126 -53.566893,-20.272542 -0.710157,-2.084626 -1.047355,-2.230584 -1.047355,-2.230584 0,0 -0.337197,0.145955 -1.047355,2.230584 C 76.998701,103.14848 61.880595,147.52767 27.305755,112.04974 9.1015421,93.369826 17.530497,74.688786 50.666095,69.050463 31.709353,72.27668 10.398413,66.946233 4.551054,46.047179 2.8685436,40.035416 8.5e-7,3.0083581 8.5e-7,-1.9943821 8.5e-7,-27.046784 21.960648,-19.173753 38.129499,-7.0352576 54.29835,5.1032379 74.502529,33.695693 81.920482,49.040066 Z" /></svg>