<svg xmlns="http://www.w3.org/2000/svg" viewBox="-2 -30 170 167" style="fill: #f4e0fd;"><path d="M 120.54937,-28.5 81.91125,-14.345 42.77875,-28.48875 0,-11.440625 v 64.871875 64.89438 l 43.290625,17.03687 38.638125,-14.155 39.1325,14.14375 L 163.84,118.30313 V 53.43125 -11.463125 Z m 0.035,7.831875 35.98188,14.159375 V 45.613125 L 120.55062,31.44 Z M 42.78,-20.656875 81.92875,-6.50875 81.9125,45.595 42.78,31.45125 Z m 77.80312,59.92875 35.98188,14.159375 h -0.001 L 121.06,67.579375 81.91125,53.43125 43.256875,67.590625 7.275,53.43125 H 7.27625 L 42.78,39.283125 81.92875,53.43125 Z M 7.27375,61.249375 43.289375,75.4225 43.255625,127.53062 7.27375,113.37125 Z M 81.9275,61.2675 121.06,75.41125 v 52.10813 L 81.91125,113.37125 Z" /></svg>