<svg xmlns="http://www.w3.org/2000/svg" viewBox="-2 -30 170 167" style="fill: #f4e0fd;"><path d="m 81.919922,-28.5 c -28.629519,0 -51.988281,23.3587625 -51.988281,51.988281 0,26.255184 19.648932,48.062939 44.988281,51.501953 V 97.65625 H 51.236328 v 14 h 23.683594 v 23.68359 h 14 v -23.68359 h 23.683598 v -14 H 88.919922 V 74.990234 C 114.25927,71.55122 133.9082,49.743465 133.9082,23.488281 133.9082,-5.1412375 110.54944,-28.5 81.919922,-28.5 Z m 0,14 c 21.063378,0 37.988278,16.924909 37.988278,37.988281 0,21.063373 -16.9249,37.988281 -37.988278,37.988281 -21.063373,0 -37.988281,-16.924908 -37.988281,-37.988281 C 43.931641,2.424909 60.856549,-14.5 81.919922,-14.5 Z" /></svg>