<svg viewBox="-2 -30 280.83701 145.86328" width="300"><path class="bullet" d="M 122.99805 -30 A 8 8 0 0 0 114.99805 -22 L 114.99805 80.591797 A 8 8 0 0 0 122.99805 88.591797 L 188.24805 88.591797 L 190.24805 109.00195 L 158.80078 111.00195 L 158.80078 115.86328 L 235.03516 115.86328 L 235.03516 111.00195 L 203.58789 109.00195 L 205.58789 88.591797 L 270.83789 88.591797 A 8 8 0 0 0 278.83789 80.591797 L 278.83789 -22 A 8 8 0 0 0 270.83789 -30 L 122.99805 -30 z M 126.44922 -18.548828 L 267.38672 -18.548828 L 267.38672 77.142578 L 126.44922 77.142578 L 126.44922 -18.548828 z M 5.5 -12.011719 C 1.3578681 -12.011719 -2 -8.653846 -2 -4.5117188 L -2 62.408203 C -2 66.55033 1.3578681 69.908203 5.5 69.908203 L 35.921875 69.908203 C 40.063997 69.908203 43.421875 66.55033 43.421875 62.408203 L 43.421875 -4.5117188 C 43.421875 -8.653846 40.063997 -12.011719 35.921875 -12.011719 L 5.5 -12.011719 z M 2.9277344 -0.62304688 L 38.494141 -0.62304688 L 38.494141 9.5820312 L 22.111328 12.177734 L 20.710938 21.013672 L 19.310547 12.177734 L 2.9277344 9.5820312 L 2.9277344 -0.62304688 z M 177.82422 9.3789062 L 169.69922 25.324219 L 196.89844 52.521484 L 224.0957 25.324219 L 215.97266 9.3789062 L 198.29688 12.177734 L 196.89844 21.015625 L 195.49805 12.177734 L 177.82422 9.3789062 z M 2.9277344 34.738281 L 20.710938 52.521484 L 38.494141 34.738281 L 38.494141 58.521484 L 2.9277344 58.521484 L 2.9277344 34.738281 z M 20.710938 60.759766 A 3.4550602 3.4550602 0 0 1 24.166016 64.214844 A 3.4550602 3.4550602 0 0 1 20.710938 67.669922 A 3.4550602 3.4550602 0 0 1 17.255859 64.214844 A 3.4550602 3.4550602 0 0 1 20.710938 60.759766 z M 250.52539 80.304688 A 2.5629756 2.5629756 0 0 1 253.08789 82.867188 A 2.5629756 2.5629756 0 0 1 250.52539 85.429688 A 2.5629756 2.5629756 0 0 1 247.96289 82.867188 A 2.5629756 2.5629756 0 0 1 250.52539 80.304688 z M 258.86133 80.304688 A 2.5629756 2.5629756 0 0 1 261.42383 82.867188 A 2.5629756 2.5629756 0 0 1 258.86133 85.429688 A 2.5629756 2.5629756 0 0 1 256.29688 82.867188 A 2.5629756 2.5629756 0 0 1 258.86133 80.304688 z M 267.19531 80.304688 A 2.5629756 2.5629756 0 0 1 269.75977 82.867188 A 2.5629756 2.5629756 0 0 1 267.19531 85.429688 A 2.5629756 2.5629756 0 0 1 264.63281 82.867188 A 2.5629756 2.5629756 0 0 1 267.19531 80.304688 z M 29.386719 82.791016 L 26.859375 85.068359 C 26.859375 85.068359 36.852591 96.263528 51.728516 98.970703 C 63.945751 101.19405 74.941073 98.070583 78.392578 96.923828 C 79.107931 99.66078 79.023614 102.63397 78.005859 105.52148 L 98.972656 87.160156 L 71.109375 87.765625 C 73.772291 89.196675 75.823882 91.294653 77.146484 93.75 C 73.807725 94.833141 63.547134 97.664903 52.337891 95.625 C 38.834146 93.167538 29.386719 82.791016 29.386719 82.791016 z " /></svg>