<svg xmlns="http://www.w3.org/2000/svg" viewBox="-2 -30 170 167" style="fill: #f4e0fd;"><path d="M 81.917191,-28.49788 A 81.920706,81.920706 0 0 0 1.7447234e-4,53.425127 81.920706,81.920706 0 0 0 81.917191,135.34214 81.920706,81.920706 0 0 0 163.8402,53.425127 81.920706,81.920706 0 0 0 81.917191,-28.49788 Z m -5.281502,12.365872 H 87.210792 V -0.50024872 C 112.87187,1.9979476 133.35988,22.47726 135.85467,48.137635 h 15.61366 v 10.581093 h -15.61366 c -2.50854,25.652621 -22.99948,46.131342 -48.656095,48.625662 v 15.63188 H 76.62359 V 107.34439 C 50.974493,104.83903 30.494358,84.35643 27.991815,58.706629 H 12.366047 V 48.125535 H 27.991815 C 30.491891,22.470917 50.978839,1.9977127 76.635689,-0.50024872 Z m 0,26.255379 C 56.726594,12.513726 41.022118,28.215852 38.633643,48.125535 H 61.392416 V 58.706629 H 38.633643 c 2.392939,19.902634 18.090602,35.61686 37.989947,38.014264 V 73.943911 H 87.198575 V 96.720893 C 107.10497,94.333709 122.80768,78.62336 125.20673,58.718728 H 102.44197 V 48.137635 h 22.77087 C 122.8293,28.222313 107.12376,12.514196 87.210792,10.123371 V 32.900352 H 76.635689 Z" /></svg>
