<svg xmlns="http://www.w3.org/2000/svg" viewBox="-2 -30 170 167" style="fill: #f4e0fd;"><path d="M 81.916974,-28.499912 A 81.920699,81.920699 0 0 0 8.230616e-5,53.417097 81.920699,81.920699 0 0 0 81.916974,135.3401 81.920699,81.920699 0 0 0 163.84009,53.417097 81.920699,81.920699 0 0 0 81.916974,-28.499912 Z m -0.006,5.2936 c 2.341251,0 4.651372,0.123348 6.938703,0.327752 V 2.0352667 H 74.972163 V -22.87856 c 2.287331,-0.204404 4.597451,-0.327752 6.93882,-0.327752 z M 53.00258,6.1390936 H 70.079265 L 57.270283,57.375139 c -1.072535,4.755454 1.672708,8.423923 6.398441,8.541397 1.597055,-0.03524 3.169558,-0.481642 4.607554,-1.2202 l -4.504412,18.017532 c -1.405691,0.15859 -2.858018,0.258442 -4.370845,0.285461 C 42.147069,82.690373 36.419285,73.603546 40.187607,57.381365 Z m 34.159478,0 H 104.23874 L 99.910306,23.43428 H 82.833622 Z M 81.807724,27.537989 h 25.618086 v 0.0061 c 17.25442,0.308956 22.98173,9.396253 19.21353,25.618081 l -6.41066,25.617964 c -4.34653,16.22219 -14.61361,25.309136 -32.022515,25.618086 H 62.588201 Z m 12.808982,17.088902 -10.678127,42.68854 h 8.535289 c 4.784117,-0.117473 9.365352,-3.779834 10.672132,-8.535288 l 6.41054,-25.617964 c 1.07254,-4.755454 -1.67881,-8.417814 -6.40455,-8.535288 z M 74.972163,108.50193 h 13.877523 v 21.22891 c -2.287214,0.20441 -4.597452,0.32776 -6.938703,0.32776 -2.341369,0 -4.651607,-0.12335 -6.93882,-0.32776 z" /></svg>