<svg xmlns="http://www.w3.org/2000/svg" viewBox="-2 -30 170 167" style="fill: #f4e0fd;"><path d="M 81.919922 -28.5 C 38.150243 -28.5 2.4054151 5.8250971 0.12109375 49.025391 L 0.12109375 57.814453 C 2.3279886 99.550484 35.767351 132.99911 77.5 135.21875 L 86.339844 135.21875 C 129.52813 132.92169 163.83984 97.180975 163.83984 53.419922 C 163.83984 8.1809071 127.16454 -28.4944 81.919922 -28.5 z M 85.773438 6.7480469 C 98.497314 6.5581688 111.33577 10.656622 121.62891 18.824219 L 107.80273 37.427734 C 90.22185 25.890587 64.715468 32.482763 66.597656 55.556641 C 68.479763 78.631105 95.715137 79.730593 110.54883 68.193359 L 122.90625 87.894531 C 102.73371 102.0406 74.434665 105.64086 53.414062 90.71875 C 42.301109 82.829167 35.171264 68.132077 35.832031 52.261719 C 36.306979 40.854735 40.421223 31.450375 46.820312 24.242188 C 57.077837 12.687861 71.353049 6.9632425 85.773438 6.7480469 z " /></svg>