<svg xmlns="http://www.w3.org/2000/svg" viewBox="-2 -30 170 167" style="fill: #f4e0fd;"><path d="M 138.78804,0.62776778 C 128.18239,-4.3343422 116.84232,-7.9406122 104.98659,-9.9940525 c -1.45602,2.6324403 -3.15709,6.1731103 -4.32989,8.9897203 -12.602952,-1.89532 -25.090002,-1.89532 -37.461182,0 -1.17258,-2.81661 -2.91227,-6.35728 -4.38132,-8.9897203 -11.86853,2.0534403 -23.22164,5.6729603 -33.82728,10.64810028 C 3.5952209,32.979718 -2.2037191,64.502458 0.69576093,95.577595 14.88385,106.17292 28.633828,112.60928 42.151758,116.82103 c 3.33765,-4.59356 6.31438,-9.47663 8.87877,-14.62293 -4.88395,-1.8558 -9.56175,-4.145954 -13.98171,-6.804655 1.1726,-0.868719 2.31959,-1.776979 3.42772,-2.7115 26.95861,12.609225 56.24981,12.609225 82.886342,0 1.12117,0.934521 2.26792,1.842781 3.42773,2.7115 -4.43299,2.67173 -9.12358,4.961885 -14.00756,6.817905 2.56439,5.13304 5.52832,10.02935 8.87878,14.6227 13.53097,-4.21177 27.2937,-10.64787 41.48181,-21.256455 3.40211,-36.024007 -5.81176,-67.257257 -24.3556,-94.94982722 z M 54.703268,76.466666 c -8.09269,0 -14.72937,-7.555019 -14.72937,-16.755178 0,-9.20017 6.49496,-16.76822 14.72937,-16.76822 8.23465,0 14.8711,7.5548 14.72938,16.76822 0.0133,9.200159 -6.49473,16.755178 -14.72938,16.755178 z m 54.432872,0 c -8.09269,0 -14.729372,-7.555019 -14.729372,-16.755178 0,-9.20017 6.494742,-16.76822 14.729372,-16.76822 8.23443,0 14.8711,7.5548 14.72938,16.76822 0,9.200159 -6.49495,16.755178 -14.72938,16.755178 z" /></svg>