<svg xmlns="http://www.w3.org/2000/svg" viewBox="-2 -30 170 167" style="fill: #f4e0fd;"><path d="M 81.923286,-28.5 C 36.685217,-28.5 0,8.172047 0,53.416695 c 0,36.19836 23.474329,66.903145 56.021267,77.732385 4.092219,0.75661 5.598833,-1.77636 5.598833,-3.94089 0,-1.954 -0.079,-8.40813 -0.111854,-15.25041 -22.790085,4.95407 -27.59943,-9.66474 -27.59943,-9.66474 -3.723784,-9.467368 -9.098919,-11.98718 -9.098919,-11.98718 -7.434419,-5.085664 0.55921,-4.98039 0.55921,-4.98039 8.223918,0.578961 12.559555,8.441026 12.559555,8.441026 7.309415,12.526644 19.164994,8.901544 23.836183,6.809394 0.736856,-5.2962 2.855333,-8.90815 5.204089,-10.954264 -18.197869,-2.072415 -37.323401,-9.09892 -37.323401,-40.487936 0,-8.941034 3.197465,-16.250448 8.441036,-21.987436 -0.848711,-2.059275 -3.651422,-10.388446 0.796069,-21.6716444 0,0 6.881779,-2.2040098 22.533515,8.3949534 6.533067,-1.815825 13.53984,-2.723748 20.507133,-2.756639 6.960712,0.0329 13.974065,0.940814 20.520294,2.756639 15.63858,-10.5989632 22.50719,-8.3949534 22.50719,-8.3949534 4.46064,11.2831984 1.65136,19.6189604 0.80265,21.6782144 5.25015,5.736998 8.42787,13.046413 8.42787,21.987446 0,31.461389 -19.165,38.39579 -37.408926,40.422163 2.940876,2.539542 5.559366,7.526513 5.559366,15.171447 0,10.96083 -0.0921,19.78345 -0.0921,22.48088 0,2.1777 1.47373,4.73698 5.62515,3.92775 C 140.39857,120.30011 163.84,89.601905 163.84,53.416695 163.84,8.172047 127.16136,-28.5 81.923287,-28.5"/></svg>