<svg xmlns="http://www.w3.org/2000/svg" viewBox="-2 -30 170 167" style="fill: #f4e0fd;"><path d="M 81.920002,-28.5 A 81.920004,81.920004 0 0 0 0,53.420004 81.920004,81.920004 0 0 0 81.920002,135.34001 81.920004,81.920004 0 0 0 163.84,53.420004 81.920004,81.920004 0 0 0 81.920002,-28.5 Z m 38.061878,46.296253 c 14.95505,0 24.10207,5.419339 25.29,18.6225 l -14.64313,1.77625 c -0.64396,-6.315599 -4.39182,-8.959375 -11.45937,-8.959375 -6.47559,0 -10.415,2.939942 -10.415,7.935625 0,4.395721 1.92003,7.039219 8.41562,8.523125 l 9.375,2.043751 c 12.5872,2.931813 19.375,9.103753 19.375,20.975 0,14.707063 -12.33103,20.270625 -30.52187,20.270625 -25.390393,0 -34.206298,-11.439404 -38.850003,-25.6825 L 71.904377,48.634378 C 68.3846,37.90306 64.300808,29.547503 51.405626,29.547503 c -8.955431,0 -18.05875,6.455896 -18.05875,24.498751 0,14.103104 7.183895,22.914375 17.33125,22.914375 11.435275,0 19.0825,-8.52375 19.0825,-8.52375 l 4.688126,12.771248 -0.0125,0.06438 c 0,0 -7.939176,7.771251 -24.498126,7.771251 -20.562694,0 -32.018125,-12.087541 -32.018125,-34.378127 0,-23.226524 11.455217,-36.829621 32.601875,-36.765625 19.542759,0 29.398268,7.06371 35.561876,26.1225 l 4.815625,14.666875 c 3.519777,10.72732 9.683313,18.499376 24.494373,18.499376 10.01937,0 15.31125,-2.248095 15.31125,-7.68375 0,-4.251731 -2.47609,-7.375613 -9.93562,-9.1475 l -9.935,-2.355625 C 98.67115,55.082064 93.855001,48.774369 93.855001,38.775003 c 0,-15.974985 12.895719,-20.97875 26.126879,-20.97875 z" /></svg>