<svg class="bullet" viewBox="-2 -30 170 167">
   <path class="bullet" d="m 103.78886,-28.495802 c -1.6005,-0.0287 -3.19811,0.0897 -4.772681,0.35953 -2.51932,0.39989 -4.79845,1.03973 -6.93786,1.95948 -1.67955,0.6998 -3.2591,1.53981 -4.7387,2.53953 -3.31912,-0.71979 -6.79837,-1.09958 -10.43738,-1.09958 -7.87787,0 -15.45553,1.79971 -22.51363,5.31876 -4.31883,2.17942 -10.25739,6.59792 -14.19633,15.4355398 -0.7398,1.59956 -1.27945,3.31891002 -2.95899,8.83742 -4.01891,12.8365302 -4.83877,17.9954502 -4.83877,22.1343302 v 10.19708 c -2e-5,4.17887 0.71946,8.25807 2.09908,12.11702 -4.01891,4.29884 -6.39798,9.6773 -7.15778,15.03585 -0.14002,1.01972 -0.21991,2.0595 -0.21991,3.09921 0,2.27939 0.35964,4.31845 0.83951,6.07796 -0.0999,1.63957 -0.1598,3.13962 -0.17978,4.47926 -0.31989,1.57956 -0.47999,3.15913 -0.47999,4.7387 v 9.67694 c 2e-5,1.59956 0.18026,3.17912 0.52016,4.7387 -0.02,0.61983 -0.0803,1.45984 -0.14017,2.53954 -0.14001,2.519322 -0.20015,4.338582 -0.20015,5.738212 0,20.55444 13.49691,29.91232 26.03352,29.91232 6.09835,0 12.27629,-2.05927 18.87451,-6.27812 2.5193,-1.61955 4.65894,-3.699 6.2985,-6.09834 1.25966,-0.0401 2.51947,-0.14032 3.79912,-0.30023 28.152371,-3.55902 45.707611,-14.43625 52.165881,-32.331402 2.07943,-5.5985 2.53923,-12.21649 1.63949,-23.43344 -0.0999,-1.29965 -0.31986,-2.57962 -0.65977,-3.83928 -0.87975,-3.3391 -1.87937,-6.07816 -3.05906,-8.45751 -1.25964,-2.99919 -3.09947,-6.45818 -5.79875,-9.91723 0.08,-0.25993 0.15973,-0.54022 0.2397,-0.84013 0.35989,-1.31964 0.58016,-2.67918 0.68012,-4.0388 0.23993,-3.55904 0.3002,-6.57799 0.14017,-9.27725 0.61984,-6.97812 1.07929,-12.25665 1.39918,-15.79569 0.0201,-0.1199 0.0201,-0.24017 0.0401,-0.36014 0.35991,-4.8786802 0.60009,-8.6178702 0.74006,-11.4171202 0.85976,-15.8756898 -6.13851,-23.5932598 -12.23686,-27.3122298 -4.34883,-2.6393 -9.18108,-4.05267 -13.98261,-4.13889 z m -0.30948,21.9891598 c 0.91239,0.0223 1.87509,0.34109 2.88732,0.95441 1.34563,0.82178 1.90306,3.28545 1.66915,7.38635 -0.11806,2.57929 -0.35171,6.21443 -0.70361,10.9031602 -0.35191,3.87094 -0.87809,9.79119 -1.5839,17.76504 0.23394,1.87549 0.23394,4.45673 0,7.73783 -0.58784,2.22741 -2.34693,3.34076 -5.27614,3.34076 -1.525581,0 -2.989471,-0.40954 -4.397101,-1.22931 -0.7038,-2.2254 -1.05386,-3.16696 -1.05386,-2.81505 0.23193,-3.16516 -0.4118,-7.38653 -1.93539,-12.6631 -1.29166,-2.69526 -3.07709,-6.53378 -5.36446,-11.51842 -2.2874,-4.9826502 -5.30636,-7.6521902 -9.05735,-8.0041002 -4.69072,-0.35191 -7.73806,1.23154 -9.14567,4.7485902 -0.46787,1.52558 -1.11577,3.75538 -1.93353,6.68459 -1.40763,4.33884 -2.2871,8.5015 -2.63901,12.48642 -0.1179,1.29165 -0.23615,1.81922 -0.3521,1.58328 0.35189,2.34738 0.7619,4.69073 1.23176,7.03609 0.58585,2.93121 2.02338,5.16115 4.30876,6.68274 2.28739,1.52557 6.65208,2.4613 13.10232,2.81319 15.82771,0.94174 25.616961,6.45199 29.369951,16.53326 0.58383,0.93975 1.16963,2.52133 1.75747,4.74673 0.58583,7.27204 0.46629,11.95889 -0.35149,14.07032 -3.40309,9.6154 -14.835861,15.65197 -34.294601,18.115302 -6.56822,0.82178 -13.13282,-2.285642 -19.70103,-9.321732 0,1.05571 0.2342,4.22108 0.70608,9.499652 0.3519,3.86894 0.29181,7.03398 -0.17606,9.49531 -2.93321,1.87549 -5.27657,2.81506 -7.03608,2.81506 -2.69928,0 -4.04499,-2.63718 -4.04499,-7.91576 0,-0.93774 0.0582,-2.43151 0.17606,-4.48295 0.11591,-2.049452 0.17606,-3.486982 0.17606,-4.308762 0,-1.99347 -0.17628,-3.39927 -0.52817,-4.22103 v -9.67324 c 0,-0.23394 0.0582,-0.49803 0.17605,-0.79193 0.11591,-0.29193 0.23415,-0.5554 0.35212,-0.79134 -0.11791,-1.63955 -0.0605,-4.16133 0.17543,-7.56241 0.23396,-2.11142 0.23396,-3.4565 0,-4.04434 -0.58784,-1.1697 -0.87719,-1.87367 -0.87719,-2.1096 0.46589,-3.2831 2.87286,-4.92463 7.20968,-4.92465 2.81322,0 4.51285,0.9978 5.10069,2.98926 0,1.8755 0.23374,4.63238 0.7036,8.26539 0.70582,4.22087 2.93162,8.44362 6.68461,12.66249 4.1029,4.80871 8.02967,7.0365 11.78467,6.6846 4.22085,-0.46587 8.44163,-1.46367 12.66249,-2.98926 5.8624,-2.11142 9.379821,-4.57311 10.553511,-7.38635 0.81776,-2.11142 1.22929,-4.33661 1.22931,-6.68396 0,-7.15008 -2.63733,-12.48682 -7.913901,-16.00387 -2.34738,-1.52358 -6.68418,-2.75498 -13.01646,-3.69473 -3.63502,-0.46586 -5.86433,-0.70359 -6.68212,-0.70359 -5.62848,0.1179 -10.87724,-1.69983 -15.74192,-5.45282 -4.8667,-3.75097 -7.29803,-8.09177 -7.29803,-13.01645 v -10.19955 c 0,-2.22538 1.2901,-7.44396 3.8714,-15.65174 1.16968,-3.8709502 1.81543,-5.9204802 1.93539,-6.1564102 1.05371,-2.46134 2.40095,-4.10287 4.0425,-4.92464998 3.98492,-1.99146002 8.20569,-2.98864002 12.66249,-2.98864002 8.67566,0 15.06613,3.51696002 19.17101,10.55105 0.35191,0.35191 0.93818,0.87946 1.75996,1.58327 0.11591,-1.63955 0.35171,-4.1607 0.70362,-7.56178 -0.11806,-1.52359998 -0.23617,-2.98947 -0.35212,-4.39709 0,-1.63956 0.81814,-2.75292 2.461701,-3.34075 0.46788,-0.23395 1.11361,-0.41021 1.93539,-0.52818 0.29292,-0.0585 0.59159,-0.084 0.89573,-0.0766 z">
</svg>